# xmcd
#
# Track frame offsets:
#	150
#	15394
#	31723
#	45141
#	62590
#	74411
#	90999
#	105076
#	117678
#	139268
#	154613
#	169435
#	180901
#	194029
#	210644
#
# Disc length: 2974 seconds
#
# Revision: 0
# Processed by: cddbd v1.5.2PL0 Copyright (c) Steve Scherf et al.
# Submitted via: audiograbber 1.83.01
#
DISCID=bd0b9c0f
DTITLE=Chartbuster - Essential 4 Disk 17
DYEAR=1900
DGENRE=Karaoke
TTITLE0=Willie Nelson - My Heroes Have Always Been Cowboys
TTITLE1=T.G. Sheppard - Do You Wanna Go To Heaven
TTITLE2=Charly McClain - Sleepin' With The Radio On
TTITLE3=Oak Ridge Boys - Fancy Free
TTITLE4=Moe Bandy - Hey Joe (Hey Moe)
TTITLE5=Razzy Bailey - Friends
TTITLE6=Janie Fricke - Do Me With Love
TTITLE7=Ronnie McDowell - Older Women
TTITLE8=Charley Pride - You're So Good When You're Bad
TTITLE9=Eddie Rabbitt - Someone Could Lose A Heart Tonight
TTITLE10=Michael Martin Murphy - What's Forever For
TTITLE11=Ricky Skaggs - I Don't Care
TTITLE12=Ronnie McDowell	Watchin' - Girls Go By
TTITLE13=Janie Fricke - Tell Me A Lie
TTITLE14=Glen Campbell - I Love How You Love Me
EXTD=
EXTT0=
EXTT1=
EXTT2=
EXTT3=
EXTT4=
EXTT5=
EXTT6=
EXTT7=
EXTT8=
EXTT9=
EXTT10=
EXTT11=
EXTT12=
EXTT13=
EXTT14=
PLAYORDER=
